<mxfile host="app.diagrams.net" modified="2024-02-13T15:36:39.348Z" agent="Mozilla/5.0 (Windows NT 10.0; Win64; x64) AppleWebKit/537.36 (KHTML, like Gecko) Chrome/121.0.0.0 Safari/537.36" etag="RX1VafoqSc0A0RNeAwIx" version="23.1.4" type="google">
  <diagram name="Pagina-1" id="z73PI9kT8MP9dVU25DdP">
    <mxGraphModel grid="1" page="1" gridSize="10" guides="1" tooltips="1" connect="1" arrows="1" fold="1" pageScale="1" pageWidth="827" pageHeight="1169" math="0" shadow="0">
      <root>
        <mxCell id="0" />
        <mxCell id="1" parent="0" />
        <mxCell id="yWiMVowI59MUjW3mnQw9-1" value="Automezzo (Masterclass)" style="swimlane;fontStyle=1;align=center;verticalAlign=top;childLayout=stackLayout;horizontal=1;startSize=26;horizontalStack=0;resizeParent=1;resizeParentMax=0;resizeLast=0;collapsible=1;marginBottom=0;whiteSpace=wrap;html=1;" vertex="1" parent="1">
          <mxGeometry x="470" y="40" width="290" height="270" as="geometry" />
        </mxCell>
        <mxCell id="yWiMVowI59MUjW3mnQw9-2" value="- matricola : int&lt;br&gt;- targa: String&lt;br&gt;- marca: String&lt;br&gt;- modello: String&lt;br&gt;- immatricolazione: LocalDate&lt;br&gt;- prezzo: float" style="text;strokeColor=none;fillColor=none;align=left;verticalAlign=top;spacingLeft=4;spacingRight=4;overflow=hidden;rotatable=0;points=[[0,0.5],[1,0.5]];portConstraint=eastwest;whiteSpace=wrap;html=1;" vertex="1" parent="yWiMVowI59MUjW3mnQw9-1">
          <mxGeometry y="26" width="290" height="104" as="geometry" />
        </mxCell>
        <mxCell id="yWiMVowI59MUjW3mnQw9-3" value="" style="line;strokeWidth=1;fillColor=none;align=left;verticalAlign=middle;spacingTop=-1;spacingLeft=3;spacingRight=3;rotatable=0;labelPosition=right;points=[];portConstraint=eastwest;strokeColor=inherit;" vertex="1" parent="yWiMVowI59MUjW3mnQw9-1">
          <mxGeometry y="130" width="290" height="8" as="geometry" />
        </mxCell>
        <mxCell id="yWiMVowI59MUjW3mnQw9-4" value="+ Automezzo(): void&lt;br&gt;+ Automezzo(matricola: int, targa: String, marca: String, modello: String, immatricolazione: LocalDate, prezzo: float): void&lt;br&gt;+ setMatricola(matricola: int): void&lt;br&gt;+ getMatricola(): int&lt;br&gt;...&lt;br&gt;+ toString(): String&lt;br&gt;&lt;br&gt;&lt;br&gt;&lt;br&gt;&lt;br&gt;&lt;br&gt;&lt;br&gt;&lt;br&gt;&lt;br&gt;&lt;br&gt;&lt;br&gt;&lt;br&gt;&lt;br&gt;&lt;br&gt;" style="text;strokeColor=none;fillColor=none;align=left;verticalAlign=top;spacingLeft=4;spacingRight=4;overflow=hidden;rotatable=0;points=[[0,0.5],[1,0.5]];portConstraint=eastwest;whiteSpace=wrap;html=1;" vertex="1" parent="yWiMVowI59MUjW3mnQw9-1">
          <mxGeometry y="138" width="290" height="132" as="geometry" />
        </mxCell>
        <mxCell id="yWiMVowI59MUjW3mnQw9-7" value="Autocarro (Sottoclasse di liv.1 della classe Automezzo)" style="swimlane;fontStyle=1;align=center;verticalAlign=top;childLayout=stackLayout;horizontal=1;startSize=40;horizontalStack=0;resizeParent=1;resizeParentMax=0;resizeLast=0;collapsible=1;marginBottom=0;whiteSpace=wrap;html=1;" vertex="1" parent="1">
          <mxGeometry x="250" y="500" width="260" height="230" as="geometry" />
        </mxCell>
        <mxCell id="yWiMVowI59MUjW3mnQw9-8" value="- etichetta: String&amp;nbsp;&lt;br&gt;- peso: float&lt;br&gt;- lunghezza: float&lt;br&gt;- connessioneWifi: String" style="text;strokeColor=none;fillColor=none;align=left;verticalAlign=top;spacingLeft=4;spacingRight=4;overflow=hidden;rotatable=0;points=[[0,0.5],[1,0.5]];portConstraint=eastwest;whiteSpace=wrap;html=1;" vertex="1" parent="yWiMVowI59MUjW3mnQw9-7">
          <mxGeometry y="40" width="260" height="70" as="geometry" />
        </mxCell>
        <mxCell id="yWiMVowI59MUjW3mnQw9-9" value="" style="line;strokeWidth=1;fillColor=none;align=left;verticalAlign=middle;spacingTop=-1;spacingLeft=3;spacingRight=3;rotatable=0;labelPosition=right;points=[];portConstraint=eastwest;strokeColor=inherit;" vertex="1" parent="yWiMVowI59MUjW3mnQw9-7">
          <mxGeometry y="110" width="260" height="10" as="geometry" />
        </mxCell>
        <mxCell id="yWiMVowI59MUjW3mnQw9-10" value="+ Autocarro(): void&lt;br&gt;+ Autocarro(etichetta: String, peso: float, lunghezza: float, connessioneWifi: String): void&lt;br&gt;+ setEtichetta(etichetta: String): void&lt;br&gt;+ getEtichetta(): String&lt;br&gt;...&lt;br&gt;+toString(): String" style="text;strokeColor=none;fillColor=none;align=left;verticalAlign=top;spacingLeft=4;spacingRight=4;overflow=hidden;rotatable=0;points=[[0,0.5],[1,0.5]];portConstraint=eastwest;whiteSpace=wrap;html=1;" vertex="1" parent="yWiMVowI59MUjW3mnQw9-7">
          <mxGeometry y="120" width="260" height="110" as="geometry" />
        </mxCell>
        <mxCell id="yWiMVowI59MUjW3mnQw9-11" value="AziendaTrasporti" style="swimlane;fontStyle=1;align=center;verticalAlign=top;childLayout=stackLayout;horizontal=1;startSize=26;horizontalStack=0;resizeParent=1;resizeParentMax=0;resizeLast=0;collapsible=1;marginBottom=0;whiteSpace=wrap;html=1;" vertex="1" parent="1">
          <mxGeometry x="70" y="40" width="290" height="270" as="geometry" />
        </mxCell>
        <mxCell id="yWiMVowI59MUjW3mnQw9-12" value="- nome: String&lt;br&gt;- indirizzo: String&lt;br&gt;- telefono: String&lt;br&gt;- email: String&lt;br&gt;- autocarri[]: Autocarro" style="text;strokeColor=none;fillColor=none;align=left;verticalAlign=top;spacingLeft=4;spacingRight=4;overflow=hidden;rotatable=0;points=[[0,0.5],[1,0.5]];portConstraint=eastwest;whiteSpace=wrap;html=1;" vertex="1" parent="yWiMVowI59MUjW3mnQw9-11">
          <mxGeometry y="26" width="290" height="104" as="geometry" />
        </mxCell>
        <mxCell id="yWiMVowI59MUjW3mnQw9-13" value="" style="line;strokeWidth=1;fillColor=none;align=left;verticalAlign=middle;spacingTop=-1;spacingLeft=3;spacingRight=3;rotatable=0;labelPosition=right;points=[];portConstraint=eastwest;strokeColor=inherit;" vertex="1" parent="yWiMVowI59MUjW3mnQw9-11">
          <mxGeometry y="130" width="290" height="8" as="geometry" />
        </mxCell>
        <mxCell id="yWiMVowI59MUjW3mnQw9-14" value="+ aggiungiAutocarro(): void&lt;br&gt;+ aggiungiAutomobile(): void&lt;br&gt;+ ricercaAutocarroEtichetta(): void&lt;br&gt;+ ricercaAutocarroPosizione(): void&lt;br&gt;+ eliminaAutocarroEtichetta(): void&lt;br&gt;+ visualizzaAutocarri(): void&lt;br&gt;+ toString(): String" style="text;strokeColor=none;fillColor=none;align=left;verticalAlign=top;spacingLeft=4;spacingRight=4;overflow=hidden;rotatable=0;points=[[0,0.5],[1,0.5]];portConstraint=eastwest;whiteSpace=wrap;html=1;" vertex="1" parent="yWiMVowI59MUjW3mnQw9-11">
          <mxGeometry y="138" width="290" height="132" as="geometry" />
        </mxCell>
        <mxCell id="yWiMVowI59MUjW3mnQw9-16" style="edgeStyle=orthogonalEdgeStyle;rounded=0;orthogonalLoop=1;jettySize=auto;html=1;entryX=0.047;entryY=1.005;entryDx=0;entryDy=0;entryPerimeter=0;" edge="1" parent="1" source="yWiMVowI59MUjW3mnQw9-7" target="yWiMVowI59MUjW3mnQw9-4">
          <mxGeometry relative="1" as="geometry">
            <Array as="points">
              <mxPoint x="380" y="405" />
              <mxPoint x="484" y="405" />
            </Array>
          </mxGeometry>
        </mxCell>
        <mxCell id="yWiMVowI59MUjW3mnQw9-23" style="edgeStyle=orthogonalEdgeStyle;rounded=0;orthogonalLoop=1;jettySize=auto;html=1;entryX=0.695;entryY=1.017;entryDx=0;entryDy=0;entryPerimeter=0;" edge="1" parent="1" source="yWiMVowI59MUjW3mnQw9-17" target="yWiMVowI59MUjW3mnQw9-4">
          <mxGeometry relative="1" as="geometry">
            <mxPoint x="670" y="320" as="targetPoint" />
            <Array as="points">
              <mxPoint x="670" y="405" />
              <mxPoint x="672" y="405" />
            </Array>
          </mxGeometry>
        </mxCell>
        <mxCell id="yWiMVowI59MUjW3mnQw9-17" value="Automobile (Sottoclasse di liv.1 della classe Automezzo)" style="swimlane;fontStyle=1;align=center;verticalAlign=top;childLayout=stackLayout;horizontal=1;startSize=40;horizontalStack=0;resizeParent=1;resizeParentMax=0;resizeLast=0;collapsible=1;marginBottom=0;whiteSpace=wrap;html=1;" vertex="1" parent="1">
          <mxGeometry x="540" y="500" width="260" height="210" as="geometry" />
        </mxCell>
        <mxCell id="yWiMVowI59MUjW3mnQw9-18" value="- colore: String&amp;nbsp;&lt;br&gt;- porte: int&lt;br&gt;- numPasseggeri: int" style="text;strokeColor=none;fillColor=none;align=left;verticalAlign=top;spacingLeft=4;spacingRight=4;overflow=hidden;rotatable=0;points=[[0,0.5],[1,0.5]];portConstraint=eastwest;whiteSpace=wrap;html=1;" vertex="1" parent="yWiMVowI59MUjW3mnQw9-17">
          <mxGeometry y="40" width="260" height="50" as="geometry" />
        </mxCell>
        <mxCell id="yWiMVowI59MUjW3mnQw9-19" value="" style="line;strokeWidth=1;fillColor=none;align=left;verticalAlign=middle;spacingTop=-1;spacingLeft=3;spacingRight=3;rotatable=0;labelPosition=right;points=[];portConstraint=eastwest;strokeColor=inherit;" vertex="1" parent="yWiMVowI59MUjW3mnQw9-17">
          <mxGeometry y="90" width="260" height="10" as="geometry" />
        </mxCell>
        <mxCell id="yWiMVowI59MUjW3mnQw9-20" value="+ Automobile(): void&lt;br&gt;+ Automobile(colore: String, porte: int, numPasseggeri: int): void&lt;br&gt;+ setColore(colore: String): void&lt;br&gt;+ getColore(): String&lt;br&gt;...&lt;br&gt;+toString(): String" style="text;strokeColor=none;fillColor=none;align=left;verticalAlign=top;spacingLeft=4;spacingRight=4;overflow=hidden;rotatable=0;points=[[0,0.5],[1,0.5]];portConstraint=eastwest;whiteSpace=wrap;html=1;" vertex="1" parent="yWiMVowI59MUjW3mnQw9-17">
          <mxGeometry y="100" width="260" height="110" as="geometry" />
        </mxCell>
        <mxCell id="yWiMVowI59MUjW3mnQw9-21" style="edgeStyle=orthogonalEdgeStyle;rounded=0;orthogonalLoop=1;jettySize=auto;html=1;entryX=1;entryY=0.5;entryDx=0;entryDy=0;" edge="1" parent="1" source="yWiMVowI59MUjW3mnQw9-2" target="yWiMVowI59MUjW3mnQw9-12">
          <mxGeometry relative="1" as="geometry" />
        </mxCell>
      </root>
    </mxGraphModel>
  </diagram>
</mxfile>
